# Blender 3.5.0
# www.blender.org
mtllib Love.mtl
o Love
v 0.425494 1.861202 0.349687
v -0.017709 1.584174 0.380676
v -0.013800 1.251722 0.557933
v 0.741917 0.708907 -0.365560
v 0.449664 0.323775 -0.256505
v 0.354874 0.503629 -0.453182
v -0.461648 0.595296 0.467629
v -0.084705 0.276237 0.384214
v -0.009358 0.602711 0.542317
v 0.771507 0.556733 0.179695
v 0.464492 0.237578 -0.056192
v 0.919181 0.691178 -0.045415
v -0.082156 0.019338 -0.128475
v -0.531040 0.439412 -0.331537
v -0.063619 0.082465 -0.248792
v 0.567603 1.404526 -0.544381
v -0.016214 1.284529 -0.543347
v 0.461763 1.727458 -0.451007
v 0.743719 1.549644 -0.484164
v 0.731355 1.213954 -0.520940
v 0.987775 1.511085 0.374620
v 1.018789 1.107163 0.342684
v 1.160846 1.407255 0.178694
v -0.820958 1.933973 0.060169
v -1.090118 1.666062 0.153343
v -0.724326 1.864508 0.324825
v -0.754263 1.143250 0.515715
v -0.291535 0.890663 0.580544
v -0.632815 1.520190 0.530881
v -0.206303 0.438841 -0.459947
v -0.484485 0.783851 -0.519088
v -0.172459 1.070040 -0.583861
v -0.624537 1.487638 -0.534908
v 0.436073 0.906412 -0.560456
v -0.007910 0.686762 -0.566891
v -0.379707 0.930944 -0.567860
v -0.987781 1.804042 -0.107569
v -1.181296 1.498689 -0.098090
v 0.959006 1.277623 -0.418870
v 1.110630 1.481722 -0.284994
v 0.380773 1.946143 0.205903
v 0.416969 1.990654 -0.041232
v 0.000706 1.735821 0.189415
v 0.239793 1.054085 -0.582316
v 0.181476 0.067008 -0.112414
v 0.104498 0.068789 0.215564
v 0.443076 0.293081 0.227118
v 0.797123 0.600032 -0.188653
v 1.075818 1.077355 -0.254500
v 1.183380 1.215038 -0.005278
v -0.556712 0.429763 0.284629
v -0.519709 0.269676 0.004834
v -0.133856 0.073007 0.199780
v 0.153193 0.147760 -0.270970
v 0.110088 0.337672 -0.420298
v 0.559040 0.787392 -0.494744
v 0.833546 1.017754 -0.454754
v -0.830990 1.074005 -0.486187
v -0.000085 1.741096 -0.186351
v -0.356555 1.965986 -0.092594
v -0.841488 0.613532 0.114206
v -0.828535 0.601736 -0.130638
v -1.163428 1.161474 -0.114904
v -1.086503 0.984452 0.117848
v 0.814553 1.953472 -0.062336
v 1.015313 1.732466 0.208587
v 1.131321 1.629236 -0.118069
v 0.240836 0.386308 0.422994
v 0.503242 0.746475 0.507752
v 0.326341 0.964776 0.581383
v 0.814909 1.147524 0.495651
v 0.686888 1.473394 0.523039
v -0.402804 1.728648 0.435160
v -0.365951 1.908834 0.269136
v -1.146204 1.305915 0.222375
v -0.983256 1.485342 0.390878
v -0.426724 1.837544 -0.388206
v -0.958714 1.594112 -0.370865
v 0.698604 1.949018 0.185085
v 0.407943 1.926761 -0.266790
v 0.011274 1.572532 -0.392954
v 0.752909 1.848300 -0.318561
v -0.949539 1.008010 0.371453
v -0.669697 1.963669 -0.181046
v -0.807141 1.797580 -0.330442
v -0.552590 1.996188 0.094572
v 0.719386 0.718686 0.381759
v 1.107159 1.057479 0.150228
v -0.967369 0.903854 -0.269071
v -1.059616 1.268483 -0.348537
v 0.710131 1.778782 0.378750
v 0.489978 1.624040 0.499554
vn -0.2251 0.4564 0.8609
vn 0.4482 -0.5415 -0.7112
vn -0.1425 -0.4046 0.9033
vn 0.7052 -0.7079 0.0399
vn -0.4844 -0.7418 -0.4638
vn -0.0553 0.2606 -0.9639
vn 0.2500 0.0963 -0.9634
vn 0.7509 0.0054 0.6604
vn -0.5745 0.7155 0.3976
vn -0.1365 0.0041 0.9906
vn -0.3352 -0.4152 -0.8457
vn 0.0390 0.1579 -0.9867
vn 0.1369 -0.0042 -0.9906
vn -0.0368 -0.0600 -0.9975
vn -0.0899 0.0194 -0.9958
vn -0.8443 0.5336 -0.0490
vn 0.4952 0.1884 -0.8481
vn -0.4853 0.8702 0.0857
vn 0.0076 0.1006 -0.9949
vn -0.0465 0.2180 -0.9748
vn 0.1858 -0.8816 -0.4339
vn 0.5362 -0.8198 0.2011
vn 0.6998 -0.6979 -0.1523
vn 0.9330 -0.1063 -0.3440
vn -0.5605 -0.7486 0.3542
vn 0.1750 -0.9835 0.0464
vn 0.0998 -0.6009 -0.7931
vn -0.1531 -0.2856 -0.9460
vn 0.7879 -0.5080 -0.3481
vn 0.4273 -0.3656 -0.8269
vn -0.0623 -0.5271 -0.8475
vn -0.3023 -0.5726 -0.7621
vn 0.3038 -0.2004 -0.9314
vn -0.0093 -0.3898 -0.9208
vn 0.6242 -0.6998 -0.3473
vn 0.4947 -0.8606 0.1208
vn 0.6428 -0.3824 -0.6638
vn 0.7392 -0.1137 -0.6638
vn 0.1538 -0.2831 -0.9467
vn 0.0021 -0.0433 -0.9991
vn 0.6531 -0.2150 -0.7261
vn 0.3874 0.0863 -0.9179
vn 0.5829 -0.5981 -0.5500
vn 0.7058 -0.4835 -0.5178
vn 0.1137 -0.3518 -0.9292
vn 0.2715 -0.5561 -0.7856
vn 0.5325 -0.7625 -0.3675
vn 0.2093 -0.8557 -0.4732
vn 0.4267 -0.0816 -0.9007
vn 0.2960 -0.1633 -0.9411
vn -0.1852 -0.0233 -0.9824
vn -0.4078 -0.3935 -0.8239
vn -0.1415 -0.2193 -0.9653
vn -0.2244 -0.1589 -0.9614
vn 0.3813 -0.5833 -0.7172
vn 0.4684 -0.7507 -0.4659
vn 0.1125 0.0024 -0.9937
vn 0.0527 -0.0773 -0.9956
vn 0.4025 -0.4095 -0.8187
vn 0.2157 -0.2917 -0.9319
vn -0.5168 0.8560 0.0131
vn 0.5356 0.8444 0.0107
vn -0.7311 -0.6823 -0.0058
vn -0.8547 -0.5085 -0.1042
vn 0.7179 0.6953 0.0352
vn 0.9013 0.3851 0.1984
vn 0.1560 -0.3325 0.9301
vn 0.1775 -0.0130 0.9840
vn 0.2893 0.4530 0.8433
vn 0.4485 0.8810 0.1508
vn -0.9630 -0.2264 0.1461
vn -0.3769 0.0843 0.9224
vn 0.0993 0.3365 -0.9364
vn -0.7582 0.4664 -0.4556
vn 0.4309 0.0939 0.8975
vn 0.5311 0.8053 0.2634
vn -0.3022 0.6017 -0.7393
vn 0.6112 0.6696 -0.4219
vn -0.6406 -0.6999 0.3157
vn -0.8250 -0.3074 0.4741
vn -0.1766 0.7350 -0.6547
vn 0.0292 0.9912 -0.1294
vn 0.4400 -0.5450 0.7137
vn 0.7476 -0.4737 0.4656
vn -0.3740 0.4011 0.8362
vn 0.3290 0.6026 0.7271
vn -0.8063 -0.3133 -0.5018
vn -0.7922 0.2061 -0.5744
vn 0.3724 0.3731 0.8497
vn -0.2479 0.4684 0.8480
vn -0.0124 0.0720 0.9973
vn 0.0173 0.1018 0.9947
vn 0.0962 0.9934 0.0630
vn 0.1445 0.9027 -0.4053
vn -0.4286 0.6884 -0.5852
vn 0.4251 0.7126 -0.5581
vn -0.2504 -0.2165 0.9436
vn -0.6603 -0.5287 0.5333
vn 0.8168 -0.5348 0.2164
vn 0.8882 -0.4371 -0.1419
vn 0.3920 0.8061 -0.4433
vn 0.1114 0.9015 -0.4182
vn -0.5436 -0.7566 -0.3635
vn -0.4799 -0.8747 0.0674
vn -0.4128 0.0994 -0.9054
vn -0.1805 0.4653 -0.8665
vn -0.5755 0.5051 0.6432
vn -0.9567 0.1911 0.2197
vn -0.9956 -0.0565 0.0750
vn -0.9088 -0.0274 -0.4164
vn -0.2532 0.9090 0.3310
vn 0.0314 0.6738 0.7382
vn -0.3344 -0.5877 0.7367
vn 0.3838 -0.6149 0.6889
vn -0.6164 -0.7112 -0.3381
vn -0.5660 -0.4378 -0.6986
vn -0.6742 -0.0775 0.7345
vn -0.8103 0.2295 0.5392
vn 0.0990 0.3230 0.9412
vn -0.0880 0.4942 0.8649
vn -0.3559 -0.5936 0.7218
vn -0.5353 -0.4691 0.7024
vn 0.0732 0.5469 0.8340
vn 0.0027 0.9841 0.1776
vn 0.7882 0.3035 0.5354
vn 0.4805 0.4871 0.7292
vn -0.4829 0.7718 -0.4138
vn -0.2233 0.9745 -0.0201
vn 0.2232 -0.1443 0.9640
vn 0.6849 -0.4721 0.5550
vn -0.4230 -0.3009 0.8547
vn -0.5594 -0.0731 0.8257
vn -0.6720 -0.3160 -0.6697
vn -0.4616 0.0825 -0.8832
vn 0.0776 0.3003 -0.9507
vn 0.0466 0.6848 -0.7273
vn 0.1958 0.4709 -0.8602
vn 0.4926 0.4104 -0.7674
vn -0.0612 -0.6626 0.7465
vn -0.0279 -0.9872 0.1570
vn -0.4263 0.7283 0.5364
vn 0.4471 0.6794 0.5818
vn 0.5978 -0.0175 0.8014
vn 0.5253 -0.3258 0.7861
vn 0.2503 0.4293 -0.8678
vn -0.2689 0.4659 -0.8430
vn 0.1276 -0.2226 0.9665
vn -0.0097 0.0700 0.9975
vn 0.8779 -0.1711 0.4473
vn 0.9924 0.1229 -0.0068
vn 0.9799 0.0726 -0.1856
vn 0.6168 0.5503 -0.5628
vn 0.0969 -0.5732 0.8137
vn 0.0433 -0.4435 0.8952
vn 0.2947 0.9427 0.1566
vn -0.0346 0.8785 0.4766
vn -0.7440 -0.4959 0.4479
vn -0.8343 -0.5510 -0.0176
vn -0.4402 0.8684 -0.2284
vn 0.0751 0.9586 -0.2746
vn 0.0129 -0.1191 0.9928
vn -0.1522 -0.2752 0.9493
vn 0.4292 0.6909 0.5818
vn 0.1502 0.7470 0.6477
vn -0.4753 0.8585 -0.1923
vn -0.6803 0.7237 0.1159
vn -0.6530 -0.5423 -0.5287
vn -0.8363 -0.4936 -0.2386
vn 0.0003 0.1545 0.9880
vn 0.2039 0.4055 0.8911
vn 0.9418 -0.1682 0.2911
vn 0.8933 -0.4492 -0.0173
vn -0.2999 0.3959 -0.8679
vn -0.6286 0.5728 -0.5261
vn 0.3971 -0.4742 0.7858
vn 0.4458 -0.3212 0.8355
vn 0.5501 -0.5766 0.6041
vn 0.6310 -0.7510 0.1948
vn -0.4127 0.7223 0.5550
vn 0.0251 0.8641 0.5027
s 0
usemtl wire_143224087
f 1//1 2//1 3//1
f 4//2 5//2 6//2
f 7//3 8//3 9//3
f 10//4 11//4 12//4
f 13//5 14//5 15//5
f 16//6 17//6 18//6
f 19//7 20//7 16//7
f 21//8 22//8 23//8
f 24//9 25//9 26//9
f 27//10 28//10 29//10
f 30//11 14//11 31//11
f 32//12 33//12 17//12
f 20//13 34//13 16//13
f 35//14 36//14 32//14
f 32//15 36//15 33//15
f 37//16 38//16 25//16
f 39//17 19//17 40//17
f 41//18 42//18 43//18
f 16//19 44//19 32//19
f 16//20 32//20 17//20
f 15//21 45//21 13//21
f 46//22 11//22 47//22
f 11//23 48//23 12//23
f 49//24 40//24 50//24
f 51//25 52//25 53//25
f 13//26 45//26 46//26
f 54//27 15//27 55//27
f 30//28 31//28 35//28
f 48//29 49//29 12//29
f 4//30 56//30 57//30
f 55//31 15//31 30//31
f 15//32 14//32 30//32
f 57//33 56//33 34//33
f 55//34 30//34 35//34
f 11//35 5//35 48//35
f 46//36 45//36 11//36
f 49//37 4//37 57//37
f 40//38 49//38 39//38
f 6//39 35//39 34//39
f 35//40 32//40 44//40
f 39//41 49//41 57//41
f 39//42 20//42 19//42
f 48//43 5//43 4//43
f 48//44 4//44 49//44
f 35//45 6//45 55//45
f 6//46 54//46 55//46
f 11//47 45//47 5//47
f 45//48 15//48 54//48
f 39//49 57//49 20//49
f 20//50 57//50 34//50
f 36//51 58//51 33//51
f 31//52 14//52 58//52
f 35//53 31//53 36//53
f 31//54 58//54 36//54
f 5//55 54//55 6//55
f 54//56 5//56 45//56
f 34//57 44//57 16//57
f 34//58 35//58 44//58
f 4//59 6//59 56//59
f 6//60 34//60 56//60
f 42//61 59//61 43//61
f 60//62 43//62 59//62
f 61//63 62//63 52//63
f 63//64 62//64 64//64
f 65//65 66//65 67//65
f 67//66 66//66 23//66
f 68//67 69//67 9//67
f 70//68 71//68 72//68
f 2//69 73//69 3//69
f 43//70 60//70 74//70
f 63//71 64//71 75//71
f 76//72 27//72 29//72
f 17//73 33//73 77//73
f 37//74 78//74 38//74
f 72//75 71//75 21//75
f 79//76 66//76 65//76
f 80//77 18//77 81//77
f 82//78 65//78 67//78
f 52//79 51//79 61//79
f 64//80 83//80 75//80
f 84//81 77//81 85//81
f 60//82 84//82 86//82
f 68//83 47//83 87//83
f 22//84 10//84 88//84
f 29//85 26//85 76//85
f 2//86 74//86 73//86
f 89//87 63//87 90//87
f 38//88 78//88 90//88
f 21//89 91//89 72//89
f 1//90 3//90 92//90
f 28//91 3//91 29//91
f 3//92 70//92 72//92
f 42//93 79//93 65//93
f 65//94 82//94 80//94
f 81//95 59//95 80//95
f 77//96 59//96 81//96
f 7//97 28//97 27//97
f 61//98 51//98 83//98
f 12//99 88//99 10//99
f 12//100 49//100 50//100
f 59//101 77//101 60//101
f 77//102 84//102 60//102
f 52//103 14//103 13//103
f 52//104 13//104 53//104
f 33//105 58//105 78//105
f 33//106 85//106 77//106
f 76//107 26//107 25//107
f 38//108 75//108 25//108
f 63//109 75//109 38//109
f 38//110 90//110 63//110
f 86//111 24//111 26//111
f 74//112 26//112 73//112
f 53//113 8//113 7//113
f 46//114 47//114 68//114
f 52//115 62//115 14//115
f 58//116 14//116 89//116
f 76//117 75//117 83//117
f 25//118 75//118 76//118
f 29//119 3//119 73//119
f 73//120 26//120 29//120
f 53//121 7//121 51//121
f 83//122 51//122 7//122
f 92//123 91//123 1//123
f 42//124 41//124 79//124
f 66//125 21//125 23//125
f 66//126 91//126 21//126
f 37//127 84//127 85//127
f 84//128 24//128 86//128
f 69//129 71//129 70//129
f 87//130 10//130 22//130
f 83//131 7//131 27//131
f 76//132 83//132 27//132
f 58//133 89//133 90//133
f 58//134 90//134 78//134
f 18//135 19//135 16//135
f 18//136 80//136 82//136
f 19//137 18//137 82//137
f 82//138 40//138 19//138
f 53//139 46//139 8//139
f 53//140 13//140 46//140
f 43//141 2//141 41//141
f 43//142 74//142 2//142
f 71//143 22//143 21//143
f 87//144 22//144 71//144
f 17//145 77//145 81//145
f 17//146 81//146 18//146
f 9//147 69//147 70//147
f 28//148 70//148 3//148
f 88//149 23//149 22//149
f 50//150 67//150 23//150
f 40//151 67//151 50//151
f 82//152 67//152 40//152
f 46//153 68//153 8//153
f 9//154 8//154 68//154
f 74//155 60//155 86//155
f 86//156 26//156 74//156
f 64//157 61//157 83//157
f 62//158 61//158 64//158
f 42//159 80//159 59//159
f 65//160 80//160 42//160
f 9//161 70//161 28//161
f 7//162 9//162 28//162
f 91//163 66//163 79//163
f 79//164 1//164 91//164
f 24//165 84//165 37//165
f 24//166 37//166 25//166
f 89//167 14//167 62//167
f 89//168 62//168 63//168
f 72//169 92//169 3//169
f 72//170 91//170 92//170
f 88//171 50//171 23//171
f 12//172 50//172 88//172
f 33//173 78//173 85//173
f 37//174 85//174 78//174
f 68//175 87//175 69//175
f 69//176 87//176 71//176
f 47//177 10//177 87//177
f 47//178 11//178 10//178
f 41//179 2//179 1//179
f 79//180 41//180 1//180
